<svg width="20" height="20" xmlns="http://www.w3.org/2000/svg"><path d="M10 20C4.477 20 0 15.523 0 10S4.477 0 10 0s10 4.477 10 10-4.477 10-10 10zm1.08-8.525l.319-8.142H8.635l.319 8.142h2.126zm-1.054 1.117a1.707 1.707 0 0 0-1.187.496 1.785 1.785 0 0 0-.368.536 1.58 1.58 0 0 0 0 1.29c.091.206.214.386.367.54.154.153.334.275.54.367a1.58 1.58 0 0 0 1.285 0 1.77 1.77 0 0 0 .9-.908 1.58 1.58 0 0 0 0-1.29 1.785 1.785 0 0 0-.368-.535 1.736 1.736 0 0 0-.532-.363 1.563 1.563 0 0 0-.637-.133z" fill="#D92045" fill-rule="evenodd"/></svg>